<?xml version="1.0" standalone="no"?>
<!DOCTYPE svg PUBLIC "-//W3C//DTD SVG 20010904//EN"
 "http://www.w3.org/TR/2001/REC-SVG-20010904/DTD/svg10.dtd">
<svg version="1.0" xmlns="http://www.w3.org/2000/svg"
 width="286.000000pt" height="273.000000pt" viewBox="0 0 286.000000 273.000000"
 preserveAspectRatio="xMidYMid meet">

    <g transform="translate(0.000000,273.000000) scale(0.100000,-0.100000)"
    fill="#7510F6" stroke="#7510F6">
    <path d="M705 2695 c-203 -7 -406 -18 -450 -24 -44 -7 -105 -13 -135 -14 l-55
    -2 -3 -42 -3 -43 68 0 c107 0 232 -18 272 -38 55 -29 80 -87 91 -212 12 -136
    13 -1780 0 -1927 -9 -118 -27 -168 -72 -210 -46 -43 -96 -56 -235 -61 l-133
    -5 0 -43 0 -44 708 0 c890 0 1024 9 1242 80 198 65 333 145 459 271 250 249
    376 649 341 1081 -41 506 -266 869 -665 1073 -82 42 -247 101 -345 124 -192
    44 -544 56 -1085 36z m698 -95 c292 -28 457 -149 522 -386 25 -89 31 -311 11
    -404 -22 -106 -76 -209 -146 -281 -111 -113 -242 -150 -544 -152 l-181 -2 -3
    612 -2 612 37 4 c78 8 202 7 306 -3z m963 -1034 c22 -174 14 -484 -15 -630
    -51 -248 -140 -425 -291 -577 -117 -118 -250 -179 -468 -215 -120 -20 -312
    -23 -369 -6 -57 17 -102 57 -126 111 -17 39 -21 80 -29 316 -5 148 -7 369 -6
    490 l3 220 315 6 c319 6 424 17 545 55 147 47 292 171 356 304 20 41 40 84 44
    95 7 18 8 17 16 -9 5 -17 16 -89 25 -160z"/>
    </g>
</svg>
